<svg width="24" height="24" viewBox="0 0 24 24" fill="none" xmlns="http://www.w3.org/2000/svg">
<g clip-path="url(#clip0_49_145)">
<path d="M12.9399 12L18.4666 6.47334C18.5758 6.34581 18.6329 6.18176 18.6264 6.01397C18.6199 5.84619 18.5504 5.68703 18.4317 5.5683C18.3129 5.44957 18.1538 5.38001 17.986 5.37353C17.8182 5.36705 17.6541 5.42412 17.5266 5.53334L11.9999 11.06L6.47327 5.52667C6.34774 5.40114 6.17748 5.33061 5.99994 5.33061C5.82241 5.33061 5.65214 5.40114 5.52661 5.52667C5.40107 5.65221 5.33055 5.82247 5.33055 6.00001C5.33055 6.17754 5.40107 6.3478 5.52661 6.47334L11.0599 12L5.52661 17.5267C5.45682 17.5864 5.40014 17.66 5.36012 17.7427C5.32011 17.8254 5.29762 17.9155 5.29408 18.0073C5.29053 18.0991 5.306 18.1907 5.33952 18.2762C5.37303 18.3618 5.42387 18.4395 5.48884 18.5044C5.55381 18.5694 5.63151 18.6202 5.71706 18.6538C5.80261 18.6873 5.89416 18.7028 5.98598 18.6992C6.07779 18.6957 6.16788 18.6732 6.25059 18.6332C6.3333 18.5931 6.40684 18.5365 6.46661 18.4667L11.9999 12.94L17.5266 18.4667C17.6541 18.5759 17.8182 18.633 17.986 18.6265C18.1538 18.62 18.3129 18.5504 18.4317 18.4317C18.5504 18.313 18.6199 18.1538 18.6264 17.986C18.6329 17.8183 18.5758 17.6542 18.4666 17.5267L12.9399 12Z" fill="#F7F7F7"/>
</g>
<defs>
<clipPath id="clip0_49_145">
<rect width="24" height="24" fill="white"/>
</clipPath>
</defs>
</svg>
