<svg width="100" height="100" viewBox="0 0 100 100" fill="none" xmlns="http://www.w3.org/2000/svg">
<g opacity="0.7" clip-path="url(#clip0_43_340)">
<path fill-rule="evenodd" clip-rule="evenodd" d="M50 100C77.6142 100 100 77.6142 100 50C100 22.3858 77.6142 0 50 0C37.6109 0 32.9015 14.8598 24.1667 22.3223C13.4323 31.493 0 34.7749 0 50C0 77.6142 22.3858 100 50 100Z" fill="#2A2C36"/>
<g filter="url(#filter0_f_43_340)">
<path d="M76.6668 33.3333H33.3335C31.9528 33.3333 30.8335 34.2904 30.8335 35.471V80.3623C30.8335 81.5429 31.9528 82.5 33.3335 82.5H76.6668C78.0475 82.5 79.1668 81.5429 79.1668 80.3623V35.471C79.1668 34.2904 78.0475 33.3333 76.6668 33.3333Z" fill="#1E1F28"/>
</g>
<path d="M29.1665 33.3333C29.1665 29.6514 32.1513 26.6667 35.8332 26.6667H67.4998C71.1817 26.6667 74.1665 29.6514 74.1665 33.3333V69.1667C74.1665 72.8486 71.1817 75.8333 67.4998 75.8333H35.8332C32.1513 75.8333 29.1665 72.8486 29.1665 69.1667V33.3333Z" fill="#F7F7F7"/>
<path fill-rule="evenodd" clip-rule="evenodd" d="M70.5511 73.2238C71.4111 72.4594 71.4885 71.1425 70.7241 70.2826L64.0575 62.7826C63.293 61.9226 61.9762 61.8451 61.1163 62.6096C60.2563 63.374 60.1788 64.6908 60.9432 65.5508L67.6099 73.0508C68.3743 73.9107 69.6911 73.9882 70.5511 73.2238Z" fill="#2A2C36"/>
<path fill-rule="evenodd" clip-rule="evenodd" d="M55.0002 45.4167C50.1677 45.4167 46.2502 49.3342 46.2502 54.1667C46.2502 58.9992 50.1677 62.9167 55.0002 62.9167C59.8327 62.9167 63.7502 58.9992 63.7502 54.1667C63.7502 49.3342 59.8327 45.4167 55.0002 45.4167ZM42.0835 54.1667C42.0835 47.033 47.8665 41.25 55.0002 41.25C62.1338 41.25 67.9168 47.033 67.9168 54.1667C67.9168 61.3003 62.1338 67.0833 55.0002 67.0833C47.8665 67.0833 42.0835 61.3003 42.0835 54.1667Z" fill="#2A2C36"/>
</g>
<defs>
<filter id="filter0_f_43_340" x="14.3335" y="16.8333" width="81.3335" height="82.1667" filterUnits="userSpaceOnUse" color-interpolation-filters="sRGB">
<feFlood flood-opacity="0" result="BackgroundImageFix"/>
<feBlend mode="normal" in="SourceGraphic" in2="BackgroundImageFix" result="shape"/>
<feGaussianBlur stdDeviation="8.25" result="effect1_foregroundBlur_43_340"/>
</filter>
<clipPath id="clip0_43_340">
<rect width="100" height="100" fill="white"/>
</clipPath>
</defs>
</svg>
