<svg width="130" height="130" viewBox="0 0 130 130" fill="none" xmlns="http://www.w3.org/2000/svg">
<g opacity="0.3" clip-path="url(#clip0_43_159)">
<path fill-rule="evenodd" clip-rule="evenodd" d="M65 130C100.899 130 130 100.899 130 65C130 29.1015 100.899 0 65 0C48.8941 0 42.772 19.3178 31.4167 29.019C17.462 40.941 0 45.2074 0 65C0 100.899 29.1015 130 65 130Z" fill="#1E1F28"/>
<g filter="url(#filter0_f_43_159)">
<path fill-rule="evenodd" clip-rule="evenodd" d="M66.0834 119.167C91.2123 119.167 111.583 98.7956 111.583 73.6666C111.583 48.5377 91.2123 28.1666 66.0834 28.1666C54.8093 28.1666 50.5238 41.6891 42.575 48.4799C32.8068 56.8253 20.5834 59.8118 20.5834 73.6666C20.5834 98.7956 40.9544 119.167 66.0834 119.167Z" fill="#2A2C36"/>
</g>
<path d="M66.0833 106.167C87.0241 106.167 104 89.1908 104 68.25C104 47.3092 87.0241 30.3334 66.0833 30.3334C45.1425 30.3334 28.1666 47.3092 28.1666 68.25C28.1666 89.1908 45.1425 106.167 66.0833 106.167Z" fill="#F7F7F7"/>
<path fill-rule="evenodd" clip-rule="evenodd" d="M59.6605 60.1635C59.6605 61.9584 58.2054 63.4135 56.4105 63.4135H46.5834C44.7885 63.4135 43.3334 61.9584 43.3334 60.1635C43.3334 58.3686 44.7885 56.9135 46.5834 56.9135H56.4105C58.2054 56.9135 59.6605 58.3686 59.6605 60.1635Z" fill="#2A2C36"/>
<path fill-rule="evenodd" clip-rule="evenodd" d="M87.8271 60.1635C87.8271 61.9584 86.372 63.4135 84.5771 63.4135H74.7501C72.9551 63.4135 71.5001 61.9584 71.5001 60.1635C71.5001 58.3686 72.9551 56.9135 74.7501 56.9135H84.5771C86.372 56.9135 87.8271 58.3686 87.8271 60.1635Z" fill="#2A2C36"/>
<path fill-rule="evenodd" clip-rule="evenodd" d="M75.7939 82.5447C74.801 84.04 72.7839 84.4472 71.2886 83.4543L65.5355 79.6338L59.8916 83.4411C58.4036 84.4449 56.3836 84.0524 55.3798 82.5643C54.376 81.0763 54.7686 79.0563 56.2566 78.0526L63.7038 73.0288C64.7951 72.2927 66.2226 72.2875 67.3192 73.0157L74.8844 78.0394C76.3797 79.0324 76.7869 81.0495 75.7939 82.5447Z" fill="#2A2C36"/>
</g>
<defs>
<filter id="filter0_f_43_159" x="4.08337" y="11.6666" width="124" height="124" filterUnits="userSpaceOnUse" color-interpolation-filters="sRGB">
<feFlood flood-opacity="0" result="BackgroundImageFix"/>
<feBlend mode="normal" in="SourceGraphic" in2="BackgroundImageFix" result="shape"/>
<feGaussianBlur stdDeviation="8.25" result="effect1_foregroundBlur_43_159"/>
</filter>
<clipPath id="clip0_43_159">
<rect width="130" height="130" fill="white"/>
</clipPath>
</defs>
</svg>
