<svg width="165" height="84" viewBox="0 0 165 84" fill="none" xmlns="http://www.w3.org/2000/svg">
<path d="M82 44C93.046 44 102 35.046 102 24C102 12.954 93.046 4 82 4C70.954 4 62 12.954 62 24C62 35.046 70.954 44 82 44Z" stroke="#EF3651" stroke-width="2" stroke-linejoin="round"/>
<path d="M82 18C82.7956 18 83.5587 17.6839 84.1213 17.1213C84.6839 16.5587 85 15.7956 85 15C85 14.2044 84.6839 13.4413 84.1213 12.8787C83.5587 12.3161 82.7956 12 82 12C81.2044 12 80.4413 12.3161 79.8787 12.8787C79.3161 13.4413 79 14.2044 79 15C79 15.7956 79.3161 16.5587 79.8787 17.1213C80.4413 17.6839 81.2044 18 82 18ZM82 36C82.7956 36 83.5587 35.6839 84.1213 35.1213C84.6839 34.5587 85 33.7956 85 33C85 32.2044 84.6839 31.4413 84.1213 30.8787C83.5587 30.3161 82.7956 30 82 30C81.2044 30 80.4413 30.3161 79.8787 30.8787C79.3161 31.4413 79 32.2044 79 33C79 33.7956 79.3161 34.5587 79.8787 35.1213C80.4413 35.6839 81.2044 36 82 36ZM73 27C73.7956 27 74.5587 26.6839 75.1213 26.1213C75.6839 25.5587 76 24.7956 76 24C76 23.2044 75.6839 22.4413 75.1213 21.8787C74.5587 21.3161 73.7956 21 73 21C72.2044 21 71.4413 21.3161 70.8787 21.8787C70.3161 22.4413 70 23.2044 70 24C70 24.7956 70.3161 25.5587 70.8787 26.1213C71.4413 26.6839 72.2044 27 73 27V27ZM91 27C91.7956 27 92.5587 26.6839 93.1213 26.1213C93.6839 25.5587 94 24.7956 94 24C94 23.2044 93.6839 22.4413 93.1213 21.8787C92.5587 21.3161 91.7956 21 91 21C90.2044 21 89.4413 21.3161 88.8787 21.8787C88.3161 22.4413 88 23.2044 88 24C88 24.7956 88.3161 25.5587 88.8787 26.1213C89.4413 26.6839 90.2044 27 91 27Z" stroke="#EF3651" stroke-width="2" stroke-linejoin="round"/>
<path d="M82 44H102" stroke="#EF3651" stroke-width="2" stroke-linecap="round"/>
<path d="M31.5722 58.9375H34.1972L39.1308 72.0977L44.0527 58.9375H46.6777L40.162 76H38.0761L31.5722 58.9375ZM30.3769 58.9375H32.873L33.3066 70.3281V76H30.3769V58.9375ZM45.3769 58.9375H47.8847V76H44.9433V70.3281L45.3769 58.9375ZM51.0366 69.8008V69.5312C51.0366 68.6172 51.1694 67.7695 51.435 66.9883C51.7006 66.1992 52.0834 65.5156 52.5834 64.9375C53.0913 64.3516 53.7084 63.8984 54.435 63.5781C55.1694 63.25 55.9975 63.0859 56.9194 63.0859C57.8491 63.0859 58.6772 63.25 59.4038 63.5781C60.1381 63.8984 60.7592 64.3516 61.267 64.9375C61.7748 65.5156 62.1616 66.1992 62.4272 66.9883C62.6928 67.7695 62.8256 68.6172 62.8256 69.5312V69.8008C62.8256 70.7148 62.6928 71.5625 62.4272 72.3438C62.1616 73.125 61.7748 73.8086 61.267 74.3945C60.7592 74.9727 60.142 75.4258 59.4155 75.7539C58.6889 76.0742 57.8647 76.2344 56.9428 76.2344C56.0131 76.2344 55.1811 76.0742 54.4467 75.7539C53.7202 75.4258 53.103 74.9727 52.5952 74.3945C52.0873 73.8086 51.7006 73.125 51.435 72.3438C51.1694 71.5625 51.0366 70.7148 51.0366 69.8008ZM53.8608 69.5312V69.8008C53.8608 70.3711 53.9194 70.9102 54.0366 71.418C54.1538 71.9258 54.3373 72.3711 54.5873 72.7539C54.8373 73.1367 55.1577 73.4375 55.5483 73.6562C55.9389 73.875 56.4038 73.9844 56.9428 73.9844C57.4663 73.9844 57.9194 73.875 58.3022 73.6562C58.6928 73.4375 59.0131 73.1367 59.2631 72.7539C59.5131 72.3711 59.6967 71.9258 59.8139 71.418C59.9389 70.9102 60.0014 70.3711 60.0014 69.8008V69.5312C60.0014 68.9688 59.9389 68.4375 59.8139 67.9375C59.6967 67.4297 59.5092 66.9805 59.2514 66.5898C59.0014 66.1992 58.6811 65.8945 58.2905 65.6758C57.9077 65.4492 57.4506 65.3359 56.9194 65.3359C56.3881 65.3359 55.9272 65.4492 55.5366 65.6758C55.1538 65.8945 54.8373 66.1992 54.5873 66.5898C54.3373 66.9805 54.1538 67.4297 54.0366 67.9375C53.9194 68.4375 53.8608 68.9688 53.8608 69.5312ZM69.6103 73.7617L72.7158 63.3203H75.6455L71.2392 76H69.4111L69.6103 73.7617ZM67.2314 63.3203L70.3955 73.8086L70.5478 76H68.7197L64.29 63.3203H67.2314ZM80.895 63.3203V76H78.0591V63.3203H80.895ZM77.8716 59.9922C77.8716 59.5625 78.0122 59.207 78.2934 58.9258C78.5825 58.6367 78.9809 58.4922 79.4888 58.4922C79.9888 58.4922 80.3833 58.6367 80.6723 58.9258C80.9614 59.207 81.1059 59.5625 81.1059 59.9922C81.1059 60.4141 80.9614 60.7656 80.6723 61.0469C80.3833 61.3281 79.9888 61.4688 79.4888 61.4688C78.9809 61.4688 78.5825 61.3281 78.2934 61.0469C78.0122 60.7656 77.8716 60.4141 77.8716 59.9922ZM90.0586 76.2344C89.1211 76.2344 88.2734 76.082 87.5156 75.7773C86.7656 75.4648 86.125 75.0312 85.5938 74.4766C85.0703 73.9219 84.668 73.2695 84.3867 72.5195C84.1055 71.7695 83.9648 70.9609 83.9648 70.0938V69.625C83.9648 68.6328 84.1094 67.7344 84.3984 66.9297C84.6875 66.125 85.0898 65.4375 85.6055 64.8672C86.1211 64.2891 86.7305 63.8477 87.4336 63.543C88.1367 63.2383 88.8984 63.0859 89.7188 63.0859C90.625 63.0859 91.418 63.2383 92.0977 63.543C92.7773 63.8477 93.3398 64.2773 93.7852 64.832C94.2383 65.3789 94.5742 66.0312 94.793 66.7891C95.0195 67.5469 95.1328 68.3828 95.1328 69.2969V70.5039H85.3359V68.4766H92.3438V68.2539C92.3281 67.7461 92.2266 67.2695 92.0391 66.8242C91.8594 66.3789 91.582 66.0195 91.207 65.7461C90.832 65.4727 90.332 65.3359 89.707 65.3359C89.2383 65.3359 88.8203 65.4375 88.4531 65.6406C88.0938 65.8359 87.793 66.1211 87.5508 66.4961C87.3086 66.8711 87.1211 67.3242 86.9883 67.8555C86.8633 68.3789 86.8008 68.9688 86.8008 69.625V70.0938C86.8008 70.6484 86.875 71.1641 87.0234 71.6406C87.1797 72.1094 87.4062 72.5195 87.7031 72.8711C88 73.2227 88.3594 73.5 88.7812 73.7031C89.2031 73.8984 89.6836 73.9961 90.2227 73.9961C90.9023 73.9961 91.5078 73.8594 92.0391 73.5859C92.5703 73.3125 93.0312 72.9258 93.4219 72.4258L94.9102 73.8672C94.6367 74.2656 94.2812 74.6484 93.8438 75.0156C93.4062 75.375 92.8711 75.668 92.2383 75.8945C91.6133 76.1211 90.8867 76.2344 90.0586 76.2344ZM115.241 73.668V76H106.675V73.668H115.241ZM107.495 58.9375V76H104.554V58.9375H107.495ZM120.737 63.3203V76H117.901V63.3203H120.737ZM117.713 59.9922C117.713 59.5625 117.854 59.207 118.135 58.9258C118.424 58.6367 118.823 58.4922 119.331 58.4922C119.831 58.4922 120.225 58.6367 120.514 58.9258C120.803 59.207 120.948 59.5625 120.948 59.9922C120.948 60.4141 120.803 60.7656 120.514 61.0469C120.225 61.3281 119.831 61.4688 119.331 61.4688C118.823 61.4688 118.424 61.3281 118.135 61.0469C117.854 60.7656 117.713 60.4141 117.713 59.9922ZM124.322 58H127.147V73.293L126.877 76H124.322V58ZM135.42 69.543V69.7891C135.42 70.7266 135.315 71.5898 135.104 72.3789C134.9 73.1602 134.588 73.8398 134.166 74.418C133.752 74.9961 133.236 75.4453 132.619 75.7656C132.01 76.0781 131.303 76.2344 130.498 76.2344C129.709 76.2344 129.022 76.0859 128.436 75.7891C127.85 75.4922 127.357 75.0703 126.959 74.5234C126.568 73.9766 126.252 73.3242 126.01 72.5664C125.768 71.8086 125.596 70.9727 125.494 70.0586V69.2734C125.596 68.3516 125.768 67.5156 126.01 66.7656C126.252 66.0078 126.568 65.3555 126.959 64.8086C127.357 64.2539 127.846 63.8281 128.424 63.5312C129.01 63.2344 129.693 63.0859 130.475 63.0859C131.287 63.0859 132.002 63.2422 132.619 63.5547C133.244 63.8672 133.764 64.3125 134.178 64.8906C134.592 65.4609 134.9 66.1406 135.104 66.9297C135.315 67.7188 135.42 68.5898 135.42 69.543ZM132.596 69.7891V69.543C132.596 68.9727 132.549 68.4375 132.455 67.9375C132.361 67.4297 132.205 66.9844 131.986 66.6016C131.775 66.2188 131.486 65.918 131.119 65.6992C130.76 65.4727 130.311 65.3594 129.772 65.3594C129.272 65.3594 128.842 65.4453 128.482 65.6172C128.123 65.7891 127.822 66.0234 127.58 66.3203C127.338 66.6172 127.147 66.9609 127.006 67.3516C126.873 67.7422 126.783 68.1641 126.736 68.6172V70.7383C126.807 71.3242 126.955 71.8633 127.182 72.3555C127.416 72.8398 127.744 73.2305 128.166 73.5273C128.588 73.8164 129.131 73.9609 129.795 73.9609C130.318 73.9609 130.76 73.8555 131.119 73.6445C131.479 73.4336 131.764 73.1406 131.975 72.7656C132.193 72.3828 132.35 71.9375 132.443 71.4297C132.545 70.9219 132.596 70.375 132.596 69.7891Z" fill="#EF3651"/>
</svg>
