<svg width="165" height="84" viewBox="0 0 165 84" fill="none" xmlns="http://www.w3.org/2000/svg">
<path d="M82 44C93.046 44 102 35.046 102 24C102 12.954 93.046 4 82 4C70.954 4 62 12.954 62 24C62 35.046 70.954 44 82 44Z" stroke="#EF3651" stroke-width="2" stroke-linejoin="round"/>
<path d="M82 18C82.7956 18 83.5587 17.6839 84.1213 17.1213C84.6839 16.5587 85 15.7956 85 15C85 14.2044 84.6839 13.4413 84.1213 12.8787C83.5587 12.3161 82.7956 12 82 12C81.2044 12 80.4413 12.3161 79.8787 12.8787C79.3161 13.4413 79 14.2044 79 15C79 15.7956 79.3161 16.5587 79.8787 17.1213C80.4413 17.6839 81.2044 18 82 18ZM82 36C82.7956 36 83.5587 35.6839 84.1213 35.1213C84.6839 34.5587 85 33.7956 85 33C85 32.2044 84.6839 31.4413 84.1213 30.8787C83.5587 30.3161 82.7956 30 82 30C81.2044 30 80.4413 30.3161 79.8787 30.8787C79.3161 31.4413 79 32.2044 79 33C79 33.7956 79.3161 34.5587 79.8787 35.1213C80.4413 35.6839 81.2044 36 82 36ZM73 27C73.7956 27 74.5587 26.6839 75.1213 26.1213C75.6839 25.5587 76 24.7956 76 24C76 23.2044 75.6839 22.4413 75.1213 21.8787C74.5587 21.3161 73.7956 21 73 21C72.2044 21 71.4413 21.3161 70.8787 21.8787C70.3161 22.4413 70 23.2044 70 24C70 24.7956 70.3161 25.5587 70.8787 26.1213C71.4413 26.6839 72.2044 27 73 27V27ZM91 27C91.7956 27 92.5587 26.6839 93.1213 26.1213C93.6839 25.5587 94 24.7956 94 24C94 23.2044 93.6839 22.4413 93.1213 21.8787C92.5587 21.3161 91.7956 21 91 21C90.2044 21 89.4413 21.3161 88.8787 21.8787C88.3161 22.4413 88 23.2044 88 24C88 24.7956 88.3161 25.5587 88.8787 26.1213C89.4413 26.6839 90.2044 27 91 27Z" stroke="#EF3651" stroke-width="2" stroke-linejoin="round"/>
<path d="M82 44H102" stroke="#EF3651" stroke-width="2" stroke-linecap="round"/>
<path d="M25.1564 58.9375H27.7814L32.715 72.0977L37.6369 58.9375H40.2619L33.7463 76H31.6603L25.1564 58.9375ZM23.9611 58.9375H26.4572L26.8908 70.3281V76H23.9611V58.9375ZM38.9611 58.9375H41.4689V76H38.5275V70.3281L38.9611 58.9375ZM44.6208 69.8008V69.5312C44.6208 68.6172 44.7536 67.7695 45.0192 66.9883C45.2848 66.1992 45.6677 65.5156 46.1677 64.9375C46.6755 64.3516 47.2927 63.8984 48.0192 63.5781C48.7536 63.25 49.5817 63.0859 50.5036 63.0859C51.4333 63.0859 52.2614 63.25 52.988 63.5781C53.7223 63.8984 54.3434 64.3516 54.8512 64.9375C55.3591 65.5156 55.7458 66.1992 56.0114 66.9883C56.277 67.7695 56.4098 68.6172 56.4098 69.5312V69.8008C56.4098 70.7148 56.277 71.5625 56.0114 72.3438C55.7458 73.125 55.3591 73.8086 54.8512 74.3945C54.3434 74.9727 53.7262 75.4258 52.9997 75.7539C52.2731 76.0742 51.4489 76.2344 50.527 76.2344C49.5973 76.2344 48.7653 76.0742 48.0309 75.7539C47.3044 75.4258 46.6872 74.9727 46.1794 74.3945C45.6716 73.8086 45.2848 73.125 45.0192 72.3438C44.7536 71.5625 44.6208 70.7148 44.6208 69.8008ZM47.445 69.5312V69.8008C47.445 70.3711 47.5036 70.9102 47.6208 71.418C47.738 71.9258 47.9216 72.3711 48.1716 72.7539C48.4216 73.1367 48.7419 73.4375 49.1325 73.6562C49.5231 73.875 49.988 73.9844 50.527 73.9844C51.0505 73.9844 51.5036 73.875 51.8864 73.6562C52.277 73.4375 52.5973 73.1367 52.8473 72.7539C53.0973 72.3711 53.2809 71.9258 53.3981 71.418C53.5231 70.9102 53.5856 70.3711 53.5856 69.8008V69.5312C53.5856 68.9688 53.5231 68.4375 53.3981 67.9375C53.2809 67.4297 53.0934 66.9805 52.8356 66.5898C52.5856 66.1992 52.2653 65.8945 51.8747 65.6758C51.4919 65.4492 51.0348 65.3359 50.5036 65.3359C49.9723 65.3359 49.5114 65.4492 49.1208 65.6758C48.738 65.8945 48.4216 66.1992 48.1716 66.5898C47.9216 66.9805 47.738 67.4297 47.6208 67.9375C47.5036 68.4375 47.445 68.9688 47.445 69.5312ZM63.1945 73.7617L66.3 63.3203H69.2297L64.8234 76H62.9953L63.1945 73.7617ZM60.8156 63.3203L63.9797 73.8086L64.132 76H62.3039L57.8742 63.3203H60.8156ZM74.4792 63.3203V76H71.6433V63.3203H74.4792ZM71.4558 59.9922C71.4558 59.5625 71.5964 59.207 71.8777 58.9258C72.1667 58.6367 72.5652 58.4922 73.073 58.4922C73.573 58.4922 73.9675 58.6367 74.2566 58.9258C74.5456 59.207 74.6902 59.5625 74.6902 59.9922C74.6902 60.4141 74.5456 60.7656 74.2566 61.0469C73.9675 61.3281 73.573 61.4688 73.073 61.4688C72.5652 61.4688 72.1667 61.3281 71.8777 61.0469C71.5964 60.7656 71.4558 60.4141 71.4558 59.9922ZM83.6428 76.2344C82.7053 76.2344 81.8577 76.082 81.0998 75.7773C80.3498 75.4648 79.7092 75.0312 79.178 74.4766C78.6545 73.9219 78.2522 73.2695 77.9709 72.5195C77.6897 71.7695 77.5491 70.9609 77.5491 70.0938V69.625C77.5491 68.6328 77.6936 67.7344 77.9827 66.9297C78.2717 66.125 78.6741 65.4375 79.1897 64.8672C79.7053 64.2891 80.3147 63.8477 81.0178 63.543C81.7209 63.2383 82.4827 63.0859 83.303 63.0859C84.2092 63.0859 85.0022 63.2383 85.6819 63.543C86.3616 63.8477 86.9241 64.2773 87.3694 64.832C87.8225 65.3789 88.1584 66.0312 88.3772 66.7891C88.6037 67.5469 88.717 68.3828 88.717 69.2969V70.5039H78.9202V68.4766H85.928V68.2539C85.9123 67.7461 85.8108 67.2695 85.6233 66.8242C85.4436 66.3789 85.1662 66.0195 84.7912 65.7461C84.4162 65.4727 83.9162 65.3359 83.2912 65.3359C82.8225 65.3359 82.4045 65.4375 82.0373 65.6406C81.678 65.8359 81.3772 66.1211 81.135 66.4961C80.8928 66.8711 80.7053 67.3242 80.5725 67.8555C80.4475 68.3789 80.385 68.9688 80.385 69.625V70.0938C80.385 70.6484 80.4592 71.1641 80.6077 71.6406C80.7639 72.1094 80.9905 72.5195 81.2873 72.8711C81.5842 73.2227 81.9436 73.5 82.3655 73.7031C82.7873 73.8984 83.2678 73.9961 83.8069 73.9961C84.4866 73.9961 85.092 73.8594 85.6233 73.5859C86.1545 73.3125 86.6155 72.9258 87.0061 72.4258L88.4944 73.8672C88.2209 74.2656 87.8655 74.6484 87.428 75.0156C86.9905 75.375 86.4553 75.668 85.8225 75.8945C85.1975 76.1211 84.4709 76.2344 83.6428 76.2344ZM98.5134 72.5664C98.5134 72.2852 98.4431 72.0312 98.3025 71.8047C98.1619 71.5703 97.8923 71.3594 97.4939 71.1719C97.1033 70.9844 96.5252 70.8125 95.7595 70.6562C95.0877 70.5078 94.4705 70.332 93.908 70.1289C93.3533 69.918 92.8767 69.6641 92.4783 69.3672C92.0798 69.0703 91.7713 68.7188 91.5525 68.3125C91.3338 67.9062 91.2244 67.4375 91.2244 66.9062C91.2244 66.3906 91.3377 65.9023 91.5642 65.4414C91.7908 64.9805 92.115 64.5742 92.5369 64.2227C92.9588 63.8711 93.4705 63.5938 94.072 63.3906C94.6814 63.1875 95.3611 63.0859 96.1111 63.0859C97.1736 63.0859 98.0838 63.2656 98.8416 63.625C99.6072 63.9766 100.193 64.457 100.599 65.0664C101.006 65.668 101.209 66.3477 101.209 67.1055H98.3845C98.3845 66.7695 98.2986 66.457 98.1267 66.168C97.9627 65.8711 97.7127 65.6328 97.3767 65.4531C97.0408 65.2656 96.6189 65.1719 96.1111 65.1719C95.6267 65.1719 95.2244 65.25 94.9041 65.4062C94.5916 65.5547 94.3572 65.75 94.2009 65.9922C94.0525 66.2344 93.9783 66.5 93.9783 66.7891C93.9783 67 94.0173 67.1914 94.0955 67.3633C94.1814 67.5273 94.322 67.6797 94.5173 67.8203C94.7127 67.9531 94.9783 68.0781 95.3142 68.1953C95.658 68.3125 96.0877 68.4258 96.6033 68.5352C97.572 68.7383 98.4041 69 99.0994 69.3203C99.8025 69.6328 100.342 70.0391 100.717 70.5391C101.092 71.0312 101.279 71.6562 101.279 72.4141C101.279 72.9766 101.158 73.4922 100.916 73.9609C100.681 74.4219 100.338 74.8242 99.8845 75.168C99.4314 75.5039 98.8884 75.7656 98.2556 75.9531C97.6306 76.1406 96.9275 76.2344 96.1463 76.2344C94.9978 76.2344 94.0252 76.0312 93.2283 75.625C92.4314 75.2109 91.8259 74.6836 91.4119 74.043C91.0056 73.3945 90.8025 72.7227 90.8025 72.0273H93.533C93.5642 72.5508 93.7088 72.9688 93.9666 73.2812C94.2322 73.5859 94.5603 73.8086 94.9509 73.9492C95.3494 74.082 95.7595 74.1484 96.1814 74.1484C96.6892 74.1484 97.115 74.082 97.4588 73.9492C97.8025 73.8086 98.0642 73.6211 98.2439 73.3867C98.4236 73.1445 98.5134 72.8711 98.5134 72.5664ZM121.657 73.668V76H113.091V73.668H121.657ZM113.911 58.9375V76H110.97V58.9375H113.911ZM127.153 63.3203V76H124.317V63.3203H127.153ZM124.129 59.9922C124.129 59.5625 124.27 59.207 124.551 58.9258C124.84 58.6367 125.239 58.4922 125.746 58.4922C126.246 58.4922 126.641 58.6367 126.93 58.9258C127.219 59.207 127.364 59.5625 127.364 59.9922C127.364 60.4141 127.219 60.7656 126.93 61.0469C126.641 61.3281 126.246 61.4688 125.746 61.4688C125.239 61.4688 124.84 61.3281 124.551 61.0469C124.27 60.7656 124.129 60.4141 124.129 59.9922ZM130.738 58H133.562V73.293L133.293 76H130.738V58ZM141.836 69.543V69.7891C141.836 70.7266 141.73 71.5898 141.519 72.3789C141.316 73.1602 141.004 73.8398 140.582 74.418C140.168 74.9961 139.652 75.4453 139.035 75.7656C138.426 76.0781 137.719 76.2344 136.914 76.2344C136.125 76.2344 135.437 76.0859 134.851 75.7891C134.265 75.4922 133.773 75.0703 133.375 74.5234C132.984 73.9766 132.668 73.3242 132.426 72.5664C132.183 71.8086 132.012 70.9727 131.91 70.0586V69.2734C132.012 68.3516 132.183 67.5156 132.426 66.7656C132.668 66.0078 132.984 65.3555 133.375 64.8086C133.773 64.2539 134.262 63.8281 134.84 63.5312C135.426 63.2344 136.109 63.0859 136.89 63.0859C137.703 63.0859 138.418 63.2422 139.035 63.5547C139.66 63.8672 140.18 64.3125 140.594 64.8906C141.008 65.4609 141.316 66.1406 141.519 66.9297C141.73 67.7188 141.836 68.5898 141.836 69.543ZM139.012 69.7891V69.543C139.012 68.9727 138.965 68.4375 138.871 67.9375C138.777 67.4297 138.621 66.9844 138.402 66.6016C138.191 66.2188 137.902 65.918 137.535 65.6992C137.176 65.4727 136.726 65.3594 136.187 65.3594C135.687 65.3594 135.258 65.4453 134.898 65.6172C134.539 65.7891 134.238 66.0234 133.996 66.3203C133.754 66.6172 133.562 66.9609 133.422 67.3516C133.289 67.7422 133.199 68.1641 133.152 68.6172V70.7383C133.223 71.3242 133.371 71.8633 133.598 72.3555C133.832 72.8398 134.16 73.2305 134.582 73.5273C135.004 73.8164 135.547 73.9609 136.211 73.9609C136.734 73.9609 137.176 73.8555 137.535 73.6445C137.894 73.4336 138.18 73.1406 138.39 72.7656C138.609 72.3828 138.765 71.9375 138.859 71.4297C138.961 70.9219 139.012 70.375 139.012 69.7891Z" fill="#EF3651"/>
</svg>
